<svg width="75" height="71" viewBox="0 0 75 71" fill="none" xmlns="http://www.w3.org/2000/svg">
<g clip-path="url('#clip0_154_5966')">
<path fill-rule="evenodd" clip-rule="evenodd" d="M47.9735 23.1853C48.0499 23.636 48.118 24.0238 48.1551 24.2286C48.3837 25.474 48.5761 28.6363 49.4578 30.787C50.1298 32.428 51.204 33.4868 52.8376 33.1054C54.3224 32.7588 55.2467 31.2785 55.6915 29.232C56.6488 24.8275 55.4944 17.7912 54.5967 15.7555C54.4986 15.5334 54.2399 15.4327 54.0177 15.5308C53.7965 15.6284 53.6958 15.8871 53.7939 16.1093C54.6549 18.063 55.7529 24.8175 54.8339 29.0458C54.4745 30.6985 53.8371 31.9708 52.6376 32.2505C51.4539 32.5272 50.7573 31.6441 50.2701 30.4545C49.4116 28.3616 49.2406 25.2828 49.0187 24.07C48.8792 23.3098 48.429 20.3954 48.3303 20.1549C48.2068 19.8537 47.9513 19.8619 47.8677 19.8709C47.8029 19.8778 47.4819 19.933 47.4673 20.3318C47.2563 26.0177 42.997 34.5969 36.732 40.3398C30.5222 46.0324 22.3119 48.9358 14.0866 43.2888C13.8865 43.1521 13.613 43.203 13.4757 43.4021C13.339 43.6021 13.3899 43.8756 13.5899 44.0124C22.2084 49.929 30.8193 46.951 37.3249 40.9874C42.808 35.9616 46.7736 28.8128 47.9735 23.1853Z" fill="#0D121F"></path>
<path fill-rule="evenodd" clip-rule="evenodd" d="M14.3052 43.8859C15.3367 43.801 16.3665 43.7492 17.392 43.5841C20.1242 43.1446 22.87 42.1092 25.086 40.4352C25.2796 40.2882 25.3173 40.0131 25.1719 39.82C25.0249 39.6264 24.7498 39.5887 24.5567 39.7341C22.4545 41.3242 19.845 42.3001 17.2528 42.7169C16.0788 42.9053 14.8979 42.9433 13.7166 43.056C13.6577 43.0624 13.1428 43.0956 13.0361 43.1325C12.7871 43.217 12.7379 43.411 12.7267 43.5037C12.7163 43.581 12.7224 43.6761 12.7727 43.7822C12.8144 43.8691 12.9323 44.0153 13.1315 44.1774C13.7681 44.6984 15.4272 45.7006 15.6821 45.894C18.6047 48.1096 20.9516 50.6616 23.4897 53.2866C23.6588 53.4602 23.9372 53.4652 24.1114 53.2971C24.2855 53.129 24.2895 52.8511 24.1214 52.677C21.5514 50.0186 19.1711 47.4376 16.2127 45.1954C16.0379 45.0619 15.0292 44.3761 14.3052 43.8859Z" fill="#0D121F"></path>
</g>
<defs>
<clipPath id="clip0_154_5966">
<rect width="57.0685" height="50.03" fill="white" transform="translate(74.1777 44.5913) rotate(153.036)"></rect>
</clipPath>
</defs>
</svg>
