<svg width="231" height="315" viewBox="0 0 231 315" fill="none" xmlns="http://www.w3.org/2000/svg">
<rect x="31" y="31" width="200" height="200" rx="16" fill="#F3F5F7"></rect>
<path d="M63 75C63 68.3726 68.3726 63 75 63H187C193.627 63 199 68.3726 199 75V231H63V75Z" fill="white"></path>
<path d="M178.619 118.2H179.579V117.12C180.107 117.072 180.567 116.936 180.959 116.712C181.359 116.488 181.667 116.196 181.883 115.836C182.107 115.468 182.219 115.052 182.219 114.588C182.219 113.412 181.503 112.6 180.071 112.152L179.579 111.996V109.248C180.251 109.448 180.723 109.908 180.995 110.628L182.171 110.112C181.979 109.568 181.655 109.104 181.199 108.72C180.751 108.336 180.211 108.088 179.579 107.976V106.86H178.619V107.928C178.099 107.96 177.643 108.088 177.251 108.312C176.859 108.536 176.551 108.832 176.327 109.2C176.103 109.568 175.991 109.988 175.991 110.46C175.991 111.036 176.167 111.54 176.519 111.972C176.871 112.396 177.383 112.712 178.055 112.92L178.619 113.1V115.824C178.219 115.728 177.863 115.544 177.551 115.272C177.247 114.992 177.011 114.628 176.843 114.18L175.643 114.684C175.851 115.324 176.219 115.864 176.747 116.304C177.275 116.744 177.899 117.012 178.619 117.108V118.2ZM178.511 111.66C178.135 111.548 177.855 111.38 177.671 111.156C177.487 110.932 177.395 110.676 177.395 110.388C177.395 110.052 177.507 109.776 177.731 109.56C177.955 109.344 178.251 109.212 178.619 109.164V111.696L178.511 111.66ZM179.735 113.448C180.087 113.56 180.355 113.712 180.539 113.904C180.731 114.096 180.827 114.356 180.827 114.684C180.827 115.004 180.715 115.272 180.491 115.488C180.267 115.696 179.963 115.824 179.579 115.872V113.4L179.735 113.448Z" fill="#C3D4E9"></path>
<path d="M178.619 141.2H179.579V140.12C180.107 140.072 180.567 139.936 180.959 139.712C181.359 139.488 181.667 139.196 181.883 138.836C182.107 138.468 182.219 138.052 182.219 137.588C182.219 136.412 181.503 135.6 180.071 135.152L179.579 134.996V132.248C180.251 132.448 180.723 132.908 180.995 133.628L182.171 133.112C181.979 132.568 181.655 132.104 181.199 131.72C180.751 131.336 180.211 131.088 179.579 130.976V129.86H178.619V130.928C178.099 130.96 177.643 131.088 177.251 131.312C176.859 131.536 176.551 131.832 176.327 132.2C176.103 132.568 175.991 132.988 175.991 133.46C175.991 134.036 176.167 134.54 176.519 134.972C176.871 135.396 177.383 135.712 178.055 135.92L178.619 136.1V138.824C178.219 138.728 177.863 138.544 177.551 138.272C177.247 137.992 177.011 137.628 176.843 137.18L175.643 137.684C175.851 138.324 176.219 138.864 176.747 139.304C177.275 139.744 177.899 140.012 178.619 140.108V141.2ZM178.511 134.66C178.135 134.548 177.855 134.38 177.671 134.156C177.487 133.932 177.395 133.676 177.395 133.388C177.395 133.052 177.507 132.776 177.731 132.56C177.955 132.344 178.251 132.212 178.619 132.164V134.696L178.511 134.66ZM179.735 136.448C180.087 136.56 180.355 136.712 180.539 136.904C180.731 137.096 180.827 137.356 180.827 137.684C180.827 138.004 180.715 138.272 180.491 138.488C180.267 138.696 179.963 138.824 179.579 138.872V136.4L179.735 136.448Z" fill="#C3D4E9"></path>
<path d="M178.619 164.2H179.579V163.12C180.107 163.072 180.567 162.936 180.959 162.712C181.359 162.488 181.667 162.196 181.883 161.836C182.107 161.468 182.219 161.052 182.219 160.588C182.219 159.412 181.503 158.6 180.071 158.152L179.579 157.996V155.248C180.251 155.448 180.723 155.908 180.995 156.628L182.171 156.112C181.979 155.568 181.655 155.104 181.199 154.72C180.751 154.336 180.211 154.088 179.579 153.976V152.86H178.619V153.928C178.099 153.96 177.643 154.088 177.251 154.312C176.859 154.536 176.551 154.832 176.327 155.2C176.103 155.568 175.991 155.988 175.991 156.46C175.991 157.036 176.167 157.54 176.519 157.972C176.871 158.396 177.383 158.712 178.055 158.92L178.619 159.1V161.824C178.219 161.728 177.863 161.544 177.551 161.272C177.247 160.992 177.011 160.628 176.843 160.18L175.643 160.684C175.851 161.324 176.219 161.864 176.747 162.304C177.275 162.744 177.899 163.012 178.619 163.108V164.2ZM178.511 157.66C178.135 157.548 177.855 157.38 177.671 157.156C177.487 156.932 177.395 156.676 177.395 156.388C177.395 156.052 177.507 155.776 177.731 155.56C177.955 155.344 178.251 155.212 178.619 155.164V157.696L178.511 157.66ZM179.735 159.448C180.087 159.56 180.355 159.712 180.539 159.904C180.731 160.096 180.827 160.356 180.827 160.684C180.827 161.004 180.715 161.272 180.491 161.488C180.267 161.696 179.963 161.824 179.579 161.872V159.4L179.735 159.448Z" fill="#C3D4E9"></path>
<path d="M178.619 187.2H179.579V186.12C180.107 186.072 180.567 185.936 180.959 185.712C181.359 185.488 181.667 185.196 181.883 184.836C182.107 184.468 182.219 184.052 182.219 183.588C182.219 182.412 181.503 181.6 180.071 181.152L179.579 180.996V178.248C180.251 178.448 180.723 178.908 180.995 179.628L182.171 179.112C181.979 178.568 181.655 178.104 181.199 177.72C180.751 177.336 180.211 177.088 179.579 176.976V175.86H178.619V176.928C178.099 176.96 177.643 177.088 177.251 177.312C176.859 177.536 176.551 177.832 176.327 178.2C176.103 178.568 175.991 178.988 175.991 179.46C175.991 180.036 176.167 180.54 176.519 180.972C176.871 181.396 177.383 181.712 178.055 181.92L178.619 182.1V184.824C178.219 184.728 177.863 184.544 177.551 184.272C177.247 183.992 177.011 183.628 176.843 183.18L175.643 183.684C175.851 184.324 176.219 184.864 176.747 185.304C177.275 185.744 177.899 186.012 178.619 186.108V187.2ZM178.511 180.66C178.135 180.548 177.855 180.38 177.671 180.156C177.487 179.932 177.395 179.676 177.395 179.388C177.395 179.052 177.507 178.776 177.731 178.56C177.955 178.344 178.251 178.212 178.619 178.164V180.696L178.511 180.66ZM179.735 182.448C180.087 182.56 180.355 182.712 180.539 182.904C180.731 183.096 180.827 183.356 180.827 183.684C180.827 184.004 180.715 184.272 180.491 184.488C180.267 184.696 179.963 184.824 179.579 184.872V182.4L179.735 182.448Z" fill="#C3D4E9"></path>
<path d="M178.619 210.2H179.579V209.12C180.107 209.072 180.567 208.936 180.959 208.712C181.359 208.488 181.667 208.196 181.883 207.836C182.107 207.468 182.219 207.052 182.219 206.588C182.219 205.412 181.503 204.6 180.071 204.152L179.579 203.996V201.248C180.251 201.448 180.723 201.908 180.995 202.628L182.171 202.112C181.979 201.568 181.655 201.104 181.199 200.72C180.751 200.336 180.211 200.088 179.579 199.976V198.86H178.619V199.928C178.099 199.96 177.643 200.088 177.251 200.312C176.859 200.536 176.551 200.832 176.327 201.2C176.103 201.568 175.991 201.988 175.991 202.46C175.991 203.036 176.167 203.54 176.519 203.972C176.871 204.396 177.383 204.712 178.055 204.92L178.619 205.1V207.824C178.219 207.728 177.863 207.544 177.551 207.272C177.247 206.992 177.011 206.628 176.843 206.18L175.643 206.684C175.851 207.324 176.219 207.864 176.747 208.304C177.275 208.744 177.899 209.012 178.619 209.108V210.2ZM178.511 203.66C178.135 203.548 177.855 203.38 177.671 203.156C177.487 202.932 177.395 202.676 177.395 202.388C177.395 202.052 177.507 201.776 177.731 201.56C177.955 201.344 178.251 201.212 178.619 201.164V203.696L178.511 203.66ZM179.735 205.448C180.087 205.56 180.355 205.712 180.539 205.904C180.731 206.096 180.827 206.356 180.827 206.684C180.827 207.004 180.715 207.272 180.491 207.488C180.267 207.696 179.963 207.824 179.579 207.872V205.4L179.735 205.448Z" fill="#C3D4E9"></path>
<path d="M105.414 91H111.306V89.74H106.83V87.148H111.066V85.888H106.83V83.32H111.306V82.06H105.414V91ZM111.601 91H113.197L114.673 88.828L116.137 91H117.733L115.465 87.748L117.745 84.508H116.149L114.673 86.656L113.197 84.508H111.601L113.869 87.748L111.601 91ZM118.431 93.4H119.787V90.244C120.027 90.532 120.331 90.756 120.699 90.916C121.067 91.068 121.467 91.144 121.899 91.144C122.523 91.144 123.079 90.996 123.567 90.7C124.055 90.396 124.439 89.988 124.719 89.476C125.007 88.964 125.151 88.388 125.151 87.748C125.151 87.108 125.007 86.532 124.719 86.02C124.439 85.508 124.051 85.104 123.555 84.808C123.067 84.512 122.515 84.364 121.899 84.364C121.435 84.364 121.015 84.448 120.639 84.616C120.271 84.784 119.967 85.02 119.727 85.324V84.508H118.431V93.4ZM121.767 89.884C121.391 89.884 121.051 89.792 120.747 89.608C120.451 89.424 120.215 89.172 120.039 88.852C119.871 88.524 119.787 88.156 119.787 87.748C119.787 87.34 119.871 86.976 120.039 86.656C120.215 86.336 120.451 86.084 120.747 85.9C121.051 85.716 121.391 85.624 121.767 85.624C122.151 85.624 122.491 85.716 122.787 85.9C123.083 86.084 123.315 86.336 123.483 86.656C123.659 86.976 123.747 87.34 123.747 87.748C123.747 88.156 123.659 88.524 123.483 88.852C123.315 89.172 123.083 89.424 122.787 89.608C122.491 89.792 122.151 89.884 121.767 89.884ZM129.278 91.144C129.942 91.144 130.518 90.992 131.006 90.688C131.502 90.384 131.85 90 132.05 89.536L130.946 88.996C130.786 89.268 130.566 89.496 130.286 89.68C130.014 89.856 129.682 89.944 129.29 89.944C128.778 89.944 128.342 89.784 127.982 89.464C127.622 89.136 127.422 88.696 127.382 88.144H132.206C132.23 88.048 132.246 87.944 132.254 87.832C132.262 87.72 132.266 87.612 132.266 87.508C132.266 86.948 132.142 86.432 131.894 85.96C131.654 85.48 131.302 85.096 130.838 84.808C130.382 84.512 129.826 84.364 129.17 84.364C128.562 84.364 128.014 84.512 127.526 84.808C127.046 85.096 126.666 85.496 126.386 86.008C126.106 86.512 125.966 87.088 125.966 87.736C125.966 88.376 126.106 88.956 126.386 89.476C126.674 89.988 127.066 90.396 127.562 90.7C128.058 90.996 128.63 91.144 129.278 91.144ZM129.17 85.504C129.626 85.504 130.01 85.648 130.322 85.936C130.634 86.224 130.802 86.6 130.826 87.064H127.406C127.486 86.568 127.69 86.184 128.018 85.912C128.346 85.64 128.73 85.504 129.17 85.504ZM133.35 91H134.706V87.172C134.706 86.692 134.842 86.316 135.114 86.044C135.386 85.764 135.73 85.624 136.146 85.624C136.57 85.624 136.914 85.764 137.178 86.044C137.45 86.316 137.586 86.692 137.586 87.172V91H138.93V86.8C138.93 86.32 138.822 85.9 138.606 85.54C138.398 85.172 138.11 84.884 137.742 84.676C137.374 84.468 136.954 84.364 136.482 84.364C136.082 84.364 135.722 84.444 135.402 84.604C135.082 84.764 134.83 84.996 134.646 85.3V84.508H133.35V91ZM142.541 91.144C143.021 91.144 143.441 91.064 143.801 90.904C144.169 90.736 144.453 90.508 144.653 90.22C144.853 89.924 144.953 89.584 144.953 89.2C144.953 88.752 144.809 88.368 144.521 88.048C144.233 87.72 143.821 87.48 143.285 87.328L142.229 87.016C142.029 86.952 141.841 86.864 141.665 86.752C141.489 86.64 141.401 86.472 141.401 86.248C141.401 86.016 141.489 85.832 141.665 85.696C141.841 85.56 142.077 85.492 142.373 85.492C142.717 85.492 143.025 85.584 143.297 85.768C143.577 85.952 143.781 86.2 143.909 86.512L144.953 86.02C144.761 85.5 144.433 85.096 143.969 84.808C143.505 84.512 142.977 84.364 142.385 84.364C141.945 84.364 141.549 84.448 141.197 84.616C140.845 84.776 140.569 85 140.369 85.288C140.169 85.576 140.069 85.916 140.069 86.308C140.069 86.748 140.205 87.128 140.477 87.448C140.757 87.768 141.177 88.008 141.737 88.168L142.757 88.456C142.965 88.512 143.161 88.6 143.345 88.72C143.529 88.832 143.621 89.004 143.621 89.236C143.621 89.484 143.521 89.68 143.321 89.824C143.121 89.968 142.861 90.04 142.541 90.04C142.165 90.04 141.821 89.932 141.509 89.716C141.205 89.5 140.965 89.208 140.789 88.84L139.745 89.332C139.945 89.884 140.293 90.324 140.789 90.652C141.293 90.98 141.877 91.144 142.541 91.144ZM149.09 91.144C149.754 91.144 150.33 90.992 150.818 90.688C151.314 90.384 151.662 90 151.862 89.536L150.758 88.996C150.598 89.268 150.378 89.496 150.098 89.68C149.826 89.856 149.494 89.944 149.102 89.944C148.59 89.944 148.154 89.784 147.794 89.464C147.434 89.136 147.234 88.696 147.194 88.144H152.018C152.042 88.048 152.058 87.944 152.066 87.832C152.074 87.72 152.078 87.612 152.078 87.508C152.078 86.948 151.954 86.432 151.706 85.96C151.466 85.48 151.114 85.096 150.65 84.808C150.194 84.512 149.638 84.364 148.982 84.364C148.374 84.364 147.826 84.512 147.338 84.808C146.858 85.096 146.478 85.496 146.198 86.008C145.918 86.512 145.778 87.088 145.778 87.736C145.778 88.376 145.918 88.956 146.198 89.476C146.486 89.988 146.878 90.396 147.374 90.7C147.87 90.996 148.442 91.144 149.09 91.144ZM148.982 85.504C149.438 85.504 149.822 85.648 150.134 85.936C150.446 86.224 150.614 86.6 150.638 87.064H147.218C147.298 86.568 147.502 86.184 147.83 85.912C148.158 85.64 148.542 85.504 148.982 85.504ZM155.561 91.144C156.041 91.144 156.461 91.064 156.821 90.904C157.189 90.736 157.473 90.508 157.673 90.22C157.873 89.924 157.973 89.584 157.973 89.2C157.973 88.752 157.829 88.368 157.541 88.048C157.253 87.72 156.841 87.48 156.305 87.328L155.249 87.016C155.049 86.952 154.861 86.864 154.685 86.752C154.509 86.64 154.421 86.472 154.421 86.248C154.421 86.016 154.509 85.832 154.685 85.696C154.861 85.56 155.097 85.492 155.393 85.492C155.737 85.492 156.045 85.584 156.317 85.768C156.597 85.952 156.801 86.2 156.929 86.512L157.973 86.02C157.781 85.5 157.453 85.096 156.989 84.808C156.525 84.512 155.997 84.364 155.405 84.364C154.965 84.364 154.569 84.448 154.217 84.616C153.865 84.776 153.589 85 153.389 85.288C153.189 85.576 153.089 85.916 153.089 86.308C153.089 86.748 153.225 87.128 153.497 87.448C153.777 87.768 154.197 88.008 154.757 88.168L155.777 88.456C155.985 88.512 156.181 88.6 156.365 88.72C156.549 88.832 156.641 89.004 156.641 89.236C156.641 89.484 156.541 89.68 156.341 89.824C156.141 89.968 155.881 90.04 155.561 90.04C155.185 90.04 154.841 89.932 154.529 89.716C154.225 89.5 153.985 89.208 153.809 88.84L152.765 89.332C152.965 89.884 153.313 90.324 153.809 90.652C154.313 90.98 154.897 91.144 155.561 91.144Z" fill="#1A202C"></path>
<rect x="79" y="110" width="41" height="5" rx="2.5" fill="#C3D4E9"></rect>
<rect x="79" y="133" width="79" height="5" rx="2.5" fill="#C3D4E9"></rect>
<rect x="79" y="156" width="60" height="5" rx="2.5" fill="#C3D4E9"></rect>
<rect x="79" y="179" width="31" height="5" rx="2.5" fill="#C3D4E9"></rect>
<rect x="114" y="179" width="31" height="5" rx="2.5" fill="#C3D4E9"></rect>
<rect x="79" y="202" width="75" height="5" rx="2.5" fill="#C3D4E9"></rect>
<path d="M44.628 278H46.588V271.52H53.368V269.72H46.588V264.9H54.068V263.1H44.628V278ZM55.6681 265.5H57.5281V263.1H55.6681V265.5ZM55.6681 278H57.5281V267.22H55.6681V278ZM60.0142 278H61.8742V262.86H60.0142V278ZM64.3603 278H66.2203V262.86H64.3603V278ZM71.7634 265.5H73.6234V263.1H71.7634V265.5ZM71.7634 278H73.6234V267.22H71.7634V278ZM76.1095 278H77.9695V271.62C77.9695 270.74 78.2162 270.047 78.7095 269.54C79.2029 269.033 79.8295 268.78 80.5895 268.78C81.3495 268.78 81.9695 269.033 82.4495 269.54C82.9295 270.033 83.1695 270.727 83.1695 271.62V278H85.0495V271.02C85.0495 270.247 84.8695 269.56 84.5095 268.96C84.1629 268.347 83.6829 267.867 83.0695 267.52C82.4695 267.16 81.7829 266.98 81.0095 266.98C80.3429 266.98 79.7429 267.12 79.2095 267.4C78.6762 267.667 78.2495 268.047 77.9295 268.54V267.22H76.1095V278ZM94.7481 278.12C94.8948 278.12 95.0748 278.107 95.2881 278.08C95.5015 278.067 95.6948 278.04 95.8681 278V276.36C95.7481 276.373 95.6215 276.387 95.4881 276.4C95.3548 276.413 95.2348 276.42 95.1281 276.42C94.4748 276.42 94.0081 276.26 93.7281 275.94C93.4615 275.607 93.3281 275.167 93.3281 274.62V269H95.7481V267.22H93.3281V264.74H91.4681V265.62C91.4681 266.113 91.3281 266.507 91.0481 266.8C90.7681 267.08 90.3881 267.22 89.9081 267.22H89.5081V269H91.4681V274.68C91.4681 275.773 91.7481 276.62 92.3081 277.22C92.8815 277.82 93.6948 278.12 94.7481 278.12ZM97.8978 278H99.7578V271.62C99.7578 270.74 100.004 270.047 100.498 269.54C101.004 269.033 101.631 268.78 102.378 268.78C103.124 268.78 103.738 269.033 104.218 269.54C104.711 270.033 104.958 270.727 104.958 271.62V278H106.838V271.02C106.838 270.247 106.658 269.56 106.298 268.96C105.951 268.347 105.471 267.867 104.858 267.52C104.258 267.16 103.571 266.98 102.798 266.98C102.144 266.98 101.551 267.113 101.018 267.38C100.498 267.633 100.078 268 99.7578 268.48V262.86H97.8978V278ZM114.059 278.24C115.166 278.24 116.126 277.98 116.939 277.46C117.753 276.94 118.326 276.307 118.659 275.56L117.099 274.76C116.793 275.28 116.393 275.707 115.899 276.04C115.406 276.373 114.799 276.54 114.079 276.54C113.479 276.54 112.919 276.407 112.399 276.14C111.893 275.86 111.473 275.467 111.139 274.96C110.819 274.453 110.646 273.853 110.619 273.16H118.859C118.926 272.8 118.959 272.467 118.959 272.16C118.959 271.267 118.759 270.427 118.359 269.64C117.959 268.853 117.379 268.213 116.619 267.72C115.873 267.227 114.966 266.98 113.899 266.98C112.899 266.98 112.006 267.22 111.219 267.7C110.433 268.18 109.806 268.847 109.339 269.7C108.886 270.54 108.659 271.5 108.659 272.58C108.659 273.66 108.893 274.627 109.359 275.48C109.826 276.333 110.466 277.007 111.279 277.5C112.093 277.993 113.019 278.24 114.059 278.24ZM113.899 268.64C114.446 268.64 114.946 268.767 115.399 269.02C115.853 269.26 116.219 269.6 116.499 270.04C116.779 270.48 116.926 270.987 116.939 271.56H110.659C110.793 270.653 111.166 269.94 111.779 269.42C112.393 268.9 113.099 268.64 113.899 268.64ZM124.042 278H125.902V262.86H124.042V278ZM128.388 265.5H130.248V263.1H128.388V265.5ZM128.388 278H130.248V267.22H128.388V278ZM136.594 278.24C137.367 278.24 138.047 278.107 138.634 277.84C139.22 277.573 139.68 277.207 140.014 276.74C140.347 276.26 140.514 275.713 140.514 275.1C140.514 274.353 140.267 273.713 139.774 273.18C139.28 272.647 138.6 272.253 137.734 272L135.974 271.48C135.76 271.413 135.54 271.333 135.314 271.24C135.087 271.133 134.894 270.987 134.734 270.8C134.574 270.6 134.494 270.347 134.494 270.04C134.494 269.613 134.654 269.267 134.974 269C135.307 268.733 135.74 268.6 136.274 268.6C136.86 268.6 137.394 268.767 137.874 269.1C138.367 269.42 138.734 269.86 138.974 270.42L140.494 269.72C140.174 268.853 139.634 268.18 138.874 267.7C138.127 267.22 137.28 266.98 136.334 266.98C135.627 266.98 134.987 267.113 134.414 267.38C133.854 267.647 133.407 268.02 133.074 268.5C132.754 268.967 132.594 269.52 132.594 270.16C132.594 270.853 132.814 271.467 133.254 272C133.707 272.52 134.42 272.913 135.394 273.18L137.014 273.64C137.24 273.693 137.474 273.78 137.714 273.9C137.967 274.007 138.18 274.16 138.354 274.36C138.54 274.547 138.634 274.8 138.634 275.12C138.634 275.573 138.44 275.94 138.054 276.22C137.667 276.5 137.18 276.64 136.594 276.64C135.94 276.64 135.347 276.46 134.814 276.1C134.28 275.727 133.86 275.213 133.554 274.56L132.074 275.28C132.407 276.187 132.974 276.907 133.774 277.44C134.574 277.973 135.514 278.24 136.594 278.24ZM146.929 278.12C147.075 278.12 147.255 278.107 147.469 278.08C147.682 278.067 147.875 278.04 148.049 278V276.36C147.929 276.373 147.802 276.387 147.669 276.4C147.535 276.413 147.415 276.42 147.309 276.42C146.655 276.42 146.189 276.26 145.909 275.94C145.642 275.607 145.509 275.167 145.509 274.62V269H147.929V267.22H145.509V264.74H143.649V265.62C143.649 266.113 143.509 266.507 143.229 266.8C142.949 267.08 142.569 267.22 142.089 267.22H141.689V269H143.649V274.68C143.649 275.773 143.929 276.62 144.489 277.22C145.062 277.82 145.875 278.12 146.929 278.12ZM158.255 278.24C159.269 278.24 160.195 278 161.035 277.52C161.875 277.04 162.542 276.373 163.035 275.52C163.542 274.667 163.795 273.693 163.795 272.6C163.795 271.52 163.549 270.56 163.055 269.72C162.575 268.867 161.915 268.2 161.075 267.72C160.235 267.227 159.295 266.98 158.255 266.98C157.202 266.98 156.255 267.227 155.415 267.72C154.575 268.2 153.909 268.867 153.415 269.72C152.935 270.56 152.695 271.52 152.695 272.6C152.695 273.68 152.942 274.647 153.435 275.5C153.929 276.353 154.595 277.027 155.435 277.52C156.275 278 157.215 278.24 158.255 278.24ZM158.255 276.44C157.575 276.44 156.962 276.273 156.415 275.94C155.882 275.607 155.455 275.153 155.135 274.58C154.815 273.993 154.655 273.333 154.655 272.6C154.655 271.867 154.815 271.213 155.135 270.64C155.455 270.067 155.882 269.613 156.415 269.28C156.962 268.947 157.575 268.78 158.255 268.78C158.922 268.78 159.522 268.947 160.055 269.28C160.602 269.613 161.029 270.067 161.335 270.64C161.655 271.213 161.815 271.867 161.815 272.6C161.815 273.333 161.655 273.993 161.335 274.58C161.029 275.153 160.602 275.607 160.055 275.94C159.522 276.273 158.922 276.44 158.255 276.44ZM166.61 278H168.49V269H171.05V267.22H168.49V266.46C168.49 265.767 168.683 265.28 169.07 265C169.47 264.707 169.976 264.56 170.59 264.56C170.67 264.56 170.783 264.567 170.93 264.58C171.09 264.58 171.216 264.593 171.31 264.62V262.96C171.19 262.933 171.036 262.913 170.85 262.9C170.676 262.873 170.516 262.86 170.37 262.86C169.676 262.86 169.043 263 168.47 263.28C167.91 263.56 167.456 263.967 167.11 264.5C166.776 265.033 166.61 265.687 166.61 266.46V267.22H164.55V269H166.61V278ZM176.656 282.4C177.363 282.4 177.963 282.26 178.456 281.98C178.963 281.7 179.389 281.32 179.736 280.84C180.096 280.373 180.389 279.853 180.616 279.28L185.476 267.22H183.416L180.156 275.64L176.876 267.22H174.856L179.136 278.02L178.816 278.8C178.523 279.467 178.209 279.94 177.876 280.22C177.556 280.5 177.083 280.64 176.456 280.64C176.243 280.64 176.023 280.62 175.796 280.58C175.583 280.553 175.403 280.527 175.256 280.5V282.16C175.469 282.253 175.696 282.313 175.936 282.34C176.176 282.38 176.416 282.4 176.656 282.4ZM191.655 278.24C192.669 278.24 193.595 278 194.435 277.52C195.275 277.04 195.942 276.373 196.435 275.52C196.942 274.667 197.195 273.693 197.195 272.6C197.195 271.52 196.949 270.56 196.455 269.72C195.975 268.867 195.315 268.2 194.475 267.72C193.635 267.227 192.695 266.98 191.655 266.98C190.602 266.98 189.655 267.227 188.815 267.72C187.975 268.2 187.309 268.867 186.815 269.72C186.335 270.56 186.095 271.52 186.095 272.6C186.095 273.68 186.342 274.647 186.835 275.5C187.329 276.353 187.995 277.027 188.835 277.52C189.675 278 190.615 278.24 191.655 278.24ZM191.655 276.44C190.975 276.44 190.362 276.273 189.815 275.94C189.282 275.607 188.855 275.153 188.535 274.58C188.215 273.993 188.055 273.333 188.055 272.6C188.055 271.867 188.215 271.213 188.535 270.64C188.855 270.067 189.282 269.613 189.815 269.28C190.362 268.947 190.975 268.78 191.655 268.78C192.322 268.78 192.922 268.947 193.455 269.28C194.002 269.613 194.429 270.067 194.735 270.64C195.055 271.213 195.215 271.867 195.215 272.6C195.215 273.333 195.055 273.993 194.735 274.58C194.429 275.153 194.002 275.607 193.455 275.94C192.922 276.273 192.322 276.44 191.655 276.44ZM203.041 278.24C203.708 278.24 204.308 278.107 204.841 277.84C205.375 277.56 205.801 277.173 206.121 276.68V278H207.941V267.22H206.061V273.6C206.061 274.48 205.815 275.173 205.321 275.68C204.841 276.187 204.221 276.44 203.461 276.44C202.688 276.44 202.061 276.2 201.581 275.72C201.101 275.227 200.861 274.573 200.861 273.76V267.22H199.001V273.96C199.001 274.8 199.175 275.547 199.521 276.2C199.868 276.84 200.341 277.34 200.941 277.7C201.555 278.06 202.255 278.24 203.041 278.24ZM210.423 278H212.283V271.58C212.283 270.713 212.516 270.047 212.983 269.58C213.449 269.1 214.063 268.86 214.823 268.86H215.763V267.1H215.103C214.436 267.1 213.863 267.22 213.383 267.46C212.903 267.687 212.523 268.033 212.243 268.5V267.22H210.423V278ZM48.2462 308.24C49.2728 308.24 50.1862 307.993 50.9862 307.5C51.7995 307.007 52.4395 306.34 52.9062 305.5C53.3728 304.647 53.6062 303.687 53.6062 302.62C53.6062 301.54 53.3728 300.58 52.9062 299.74C52.4395 298.887 51.8062 298.213 51.0062 297.72C50.2062 297.227 49.2928 296.98 48.2662 296.98C47.4662 296.98 46.7462 297.133 46.1062 297.44C45.4662 297.733 44.9395 298.147 44.5262 298.68V292.86H42.6662V308H44.4862V306.44C44.8995 307.013 45.4328 307.46 46.0862 307.78C46.7528 308.087 47.4728 308.24 48.2462 308.24ZM48.1062 306.44C47.4395 306.44 46.8328 306.273 46.2862 305.94C45.7395 305.607 45.3062 305.153 44.9862 304.58C44.6795 303.993 44.5262 303.34 44.5262 302.62C44.5262 301.887 44.6795 301.233 44.9862 300.66C45.3062 300.087 45.7395 299.633 46.2862 299.3C46.8328 298.953 47.4395 298.78 48.1062 298.78C48.7862 298.78 49.3862 298.947 49.9062 299.28C50.4395 299.613 50.8595 300.073 51.1662 300.66C51.4728 301.233 51.6262 301.887 51.6262 302.62C51.6262 303.34 51.4728 303.993 51.1662 304.58C50.8595 305.153 50.4395 305.607 49.9062 305.94C49.3862 306.273 48.7862 306.44 48.1062 306.44ZM59.4651 308.24C60.1317 308.24 60.7317 308.107 61.2651 307.84C61.7984 307.56 62.2251 307.173 62.5451 306.68V308H64.3651V297.22H62.4851V303.6C62.4851 304.48 62.2384 305.173 61.7451 305.68C61.2651 306.187 60.6451 306.44 59.8851 306.44C59.1117 306.44 58.4851 306.2 58.0051 305.72C57.5251 305.227 57.2851 304.573 57.2851 303.76V297.22H55.4251V303.96C55.4251 304.8 55.5984 305.547 55.9451 306.2C56.2917 306.84 56.7651 307.34 57.3651 307.7C57.9784 308.06 58.6784 308.24 59.4651 308.24ZM70.7066 308.24C71.48 308.24 72.16 308.107 72.7466 307.84C73.3333 307.573 73.7933 307.207 74.1266 306.74C74.46 306.26 74.6266 305.713 74.6266 305.1C74.6266 304.353 74.38 303.713 73.8866 303.18C73.3933 302.647 72.7133 302.253 71.8466 302L70.0866 301.48C69.8733 301.413 69.6533 301.333 69.4266 301.24C69.2 301.133 69.0066 300.987 68.8466 300.8C68.6866 300.6 68.6066 300.347 68.6066 300.04C68.6066 299.613 68.7666 299.267 69.0866 299C69.42 298.733 69.8533 298.6 70.3866 298.6C70.9733 298.6 71.5066 298.767 71.9866 299.1C72.48 299.42 72.8466 299.86 73.0866 300.42L74.6066 299.72C74.2866 298.853 73.7466 298.18 72.9866 297.7C72.24 297.22 71.3933 296.98 70.4466 296.98C69.74 296.98 69.1 297.113 68.5266 297.38C67.9666 297.647 67.52 298.02 67.1866 298.5C66.8666 298.967 66.7066 299.52 66.7066 300.16C66.7066 300.853 66.9266 301.467 67.3666 302C67.82 302.52 68.5333 302.913 69.5066 303.18L71.1266 303.64C71.3533 303.693 71.5866 303.78 71.8266 303.9C72.08 304.007 72.2933 304.16 72.4666 304.36C72.6533 304.547 72.7466 304.8 72.7466 305.12C72.7466 305.573 72.5533 305.94 72.1666 306.22C71.78 306.5 71.2933 306.64 70.7066 306.64C70.0533 306.64 69.46 306.46 68.9266 306.1C68.3933 305.727 67.9733 305.213 67.6666 304.56L66.1866 305.28C66.52 306.187 67.0866 306.907 67.8866 307.44C68.6866 307.973 69.6266 308.24 70.7066 308.24ZM76.6615 295.5H78.5215V293.1H76.6615V295.5ZM76.6615 308H78.5215V297.22H76.6615V308ZM81.0076 308H82.8676V301.62C82.8676 300.74 83.1142 300.047 83.6076 299.54C84.1009 299.033 84.7276 298.78 85.4876 298.78C86.2476 298.78 86.8676 299.033 87.3476 299.54C87.8276 300.033 88.0676 300.727 88.0676 301.62V308H89.9476V301.02C89.9476 300.247 89.7676 299.56 89.4076 298.96C89.0609 298.347 88.5809 297.867 87.9676 297.52C87.3676 297.16 86.6809 296.98 85.9076 296.98C85.2409 296.98 84.6409 297.12 84.1076 297.4C83.5742 297.667 83.1476 298.047 82.8276 298.54V297.22H81.0076V308ZM97.1691 308.24C98.2758 308.24 99.2358 307.98 100.049 307.46C100.862 306.94 101.436 306.307 101.769 305.56L100.209 304.76C99.9025 305.28 99.5025 305.707 99.0091 306.04C98.5158 306.373 97.9091 306.54 97.1891 306.54C96.5891 306.54 96.0291 306.407 95.5091 306.14C95.0025 305.86 94.5825 305.467 94.2491 304.96C93.9291 304.453 93.7558 303.853 93.7291 303.16H101.969C102.036 302.8 102.069 302.467 102.069 302.16C102.069 301.267 101.869 300.427 101.469 299.64C101.069 298.853 100.489 298.213 99.7291 297.72C98.9825 297.227 98.0758 296.98 97.0091 296.98C96.0091 296.98 95.1158 297.22 94.3291 297.7C93.5425 298.18 92.9158 298.847 92.4491 299.7C91.9958 300.54 91.7691 301.5 91.7691 302.58C91.7691 303.66 92.0025 304.627 92.4691 305.48C92.9358 306.333 93.5758 307.007 94.3891 307.5C95.2025 307.993 96.1291 308.24 97.1691 308.24ZM97.0091 298.64C97.5558 298.64 98.0558 298.767 98.5091 299.02C98.9625 299.26 99.3291 299.6 99.6091 300.04C99.8891 300.48 100.036 300.987 100.049 301.56H93.7691C93.9025 300.653 94.2758 299.94 94.8891 299.42C95.5025 298.9 96.2091 298.64 97.0091 298.64ZM107.954 308.24C108.728 308.24 109.408 308.107 109.994 307.84C110.581 307.573 111.041 307.207 111.374 306.74C111.708 306.26 111.874 305.713 111.874 305.1C111.874 304.353 111.628 303.713 111.134 303.18C110.641 302.647 109.961 302.253 109.094 302L107.334 301.48C107.121 301.413 106.901 301.333 106.674 301.24C106.448 301.133 106.254 300.987 106.094 300.8C105.934 300.6 105.854 300.347 105.854 300.04C105.854 299.613 106.014 299.267 106.334 299C106.668 298.733 107.101 298.6 107.634 298.6C108.221 298.6 108.754 298.767 109.234 299.1C109.728 299.42 110.094 299.86 110.334 300.42L111.854 299.72C111.534 298.853 110.994 298.18 110.234 297.7C109.488 297.22 108.641 296.98 107.694 296.98C106.988 296.98 106.348 297.113 105.774 297.38C105.214 297.647 104.768 298.02 104.434 298.5C104.114 298.967 103.954 299.52 103.954 300.16C103.954 300.853 104.174 301.467 104.614 302C105.068 302.52 105.781 302.913 106.754 303.18L108.374 303.64C108.601 303.693 108.834 303.78 109.074 303.9C109.328 304.007 109.541 304.16 109.714 304.36C109.901 304.547 109.994 304.8 109.994 305.12C109.994 305.573 109.801 305.94 109.414 306.22C109.028 306.5 108.541 306.64 107.954 306.64C107.301 306.64 106.708 306.46 106.174 306.1C105.641 305.727 105.221 305.213 104.914 304.56L103.434 305.28C103.768 306.187 104.334 306.907 105.134 307.44C105.934 307.973 106.874 308.24 107.954 308.24ZM117.769 308.24C118.542 308.24 119.222 308.107 119.809 307.84C120.396 307.573 120.856 307.207 121.189 306.74C121.522 306.26 121.689 305.713 121.689 305.1C121.689 304.353 121.442 303.713 120.949 303.18C120.456 302.647 119.776 302.253 118.909 302L117.149 301.48C116.936 301.413 116.716 301.333 116.489 301.24C116.262 301.133 116.069 300.987 115.909 300.8C115.749 300.6 115.669 300.347 115.669 300.04C115.669 299.613 115.829 299.267 116.149 299C116.482 298.733 116.916 298.6 117.449 298.6C118.036 298.6 118.569 298.767 119.049 299.1C119.542 299.42 119.909 299.86 120.149 300.42L121.669 299.72C121.349 298.853 120.809 298.18 120.049 297.7C119.302 297.22 118.456 296.98 117.509 296.98C116.802 296.98 116.162 297.113 115.589 297.38C115.029 297.647 114.582 298.02 114.249 298.5C113.929 298.967 113.769 299.52 113.769 300.16C113.769 300.853 113.989 301.467 114.429 302C114.882 302.52 115.596 302.913 116.569 303.18L118.189 303.64C118.416 303.693 118.649 303.78 118.889 303.9C119.142 304.007 119.356 304.16 119.529 304.36C119.716 304.547 119.809 304.8 119.809 305.12C119.809 305.573 119.616 305.94 119.229 306.22C118.842 306.5 118.356 306.64 117.769 306.64C117.116 306.64 116.522 306.46 115.989 306.1C115.456 305.727 115.036 305.213 114.729 304.56L113.249 305.28C113.582 306.187 114.149 306.907 114.949 307.44C115.749 307.973 116.689 308.24 117.769 308.24ZM131.741 308.24C132.848 308.24 133.808 307.98 134.621 307.46C135.434 306.94 136.008 306.307 136.341 305.56L134.781 304.76C134.474 305.28 134.074 305.707 133.581 306.04C133.088 306.373 132.481 306.54 131.761 306.54C131.161 306.54 130.601 306.407 130.081 306.14C129.574 305.86 129.154 305.467 128.821 304.96C128.501 304.453 128.328 303.853 128.301 303.16H136.541C136.608 302.8 136.641 302.467 136.641 302.16C136.641 301.267 136.441 300.427 136.041 299.64C135.641 298.853 135.061 298.213 134.301 297.72C133.554 297.227 132.648 296.98 131.581 296.98C130.581 296.98 129.688 297.22 128.901 297.7C128.114 298.18 127.488 298.847 127.021 299.7C126.568 300.54 126.341 301.5 126.341 302.58C126.341 303.66 126.574 304.627 127.041 305.48C127.508 306.333 128.148 307.007 128.961 307.5C129.774 307.993 130.701 308.24 131.741 308.24ZM131.581 298.64C132.128 298.64 132.628 298.767 133.081 299.02C133.534 299.26 133.901 299.6 134.181 300.04C134.461 300.48 134.608 300.987 134.621 301.56H128.341C128.474 300.653 128.848 299.94 129.461 299.42C130.074 298.9 130.781 298.64 131.581 298.64ZM137.251 308H139.531L142.151 304.14L144.771 308H147.011L143.271 302.6L147.031 297.22H144.771L142.151 301.06L139.511 297.22H137.271L141.031 302.6L137.251 308ZM148.286 312H150.146V306.5C150.559 307.06 151.086 307.493 151.726 307.8C152.379 308.093 153.092 308.24 153.866 308.24C154.892 308.24 155.806 307.993 156.606 307.5C157.419 307.007 158.059 306.34 158.526 305.5C158.992 304.647 159.226 303.687 159.226 302.62C159.226 301.54 158.992 300.58 158.526 299.74C158.059 298.887 157.426 298.213 156.626 297.72C155.826 297.227 154.912 296.98 153.886 296.98C153.072 296.98 152.339 297.14 151.686 297.46C151.046 297.767 150.519 298.193 150.106 298.74V297.22H148.286V312ZM153.726 306.44C153.059 306.44 152.452 306.273 151.906 305.94C151.359 305.607 150.926 305.153 150.606 304.58C150.299 303.993 150.146 303.34 150.146 302.62C150.146 301.887 150.299 301.233 150.606 300.66C150.926 300.087 151.359 299.633 151.906 299.3C152.452 298.953 153.059 298.78 153.726 298.78C154.406 298.78 155.006 298.947 155.526 299.28C156.059 299.613 156.479 300.073 156.786 300.66C157.092 301.233 157.246 301.887 157.246 302.62C157.246 303.34 157.092 303.993 156.786 304.58C156.479 305.153 156.059 305.607 155.526 305.94C155.006 306.273 154.406 306.44 153.726 306.44ZM166.225 308.24C167.331 308.24 168.291 307.98 169.105 307.46C169.918 306.94 170.491 306.307 170.825 305.56L169.265 304.76C168.958 305.28 168.558 305.707 168.065 306.04C167.571 306.373 166.965 306.54 166.245 306.54C165.645 306.54 165.085 306.407 164.565 306.14C164.058 305.86 163.638 305.467 163.305 304.96C162.985 304.453 162.811 303.853 162.785 303.16H171.025C171.091 302.8 171.125 302.467 171.125 302.16C171.125 301.267 170.925 300.427 170.525 299.64C170.125 298.853 169.545 298.213 168.785 297.72C168.038 297.227 167.131 296.98 166.065 296.98C165.065 296.98 164.171 297.22 163.385 297.7C162.598 298.18 161.971 298.847 161.505 299.7C161.051 300.54 160.825 301.5 160.825 302.58C160.825 303.66 161.058 304.627 161.525 305.48C161.991 306.333 162.631 307.007 163.445 307.5C164.258 307.993 165.185 308.24 166.225 308.24ZM166.065 298.64C166.611 298.64 167.111 298.767 167.565 299.02C168.018 299.26 168.385 299.6 168.665 300.04C168.945 300.48 169.091 300.987 169.105 301.56H162.825C162.958 300.653 163.331 299.94 163.945 299.42C164.558 298.9 165.265 298.64 166.065 298.64ZM173.15 308H175.01V301.62C175.01 300.74 175.256 300.047 175.75 299.54C176.243 299.033 176.87 298.78 177.63 298.78C178.39 298.78 179.01 299.033 179.49 299.54C179.97 300.033 180.21 300.727 180.21 301.62V308H182.09V301.02C182.09 300.247 181.91 299.56 181.55 298.96C181.203 298.347 180.723 297.867 180.11 297.52C179.51 297.16 178.823 296.98 178.05 296.98C177.383 296.98 176.783 297.12 176.25 297.4C175.716 297.667 175.29 298.047 174.97 298.54V297.22H173.15V308ZM188.211 308.24C188.985 308.24 189.665 308.107 190.251 307.84C190.838 307.573 191.298 307.207 191.631 306.74C191.965 306.26 192.131 305.713 192.131 305.1C192.131 304.353 191.885 303.713 191.391 303.18C190.898 302.647 190.218 302.253 189.351 302L187.591 301.48C187.378 301.413 187.158 301.333 186.931 301.24C186.705 301.133 186.511 300.987 186.351 300.8C186.191 300.6 186.111 300.347 186.111 300.04C186.111 299.613 186.271 299.267 186.591 299C186.925 298.733 187.358 298.6 187.891 298.6C188.478 298.6 189.011 298.767 189.491 299.1C189.985 299.42 190.351 299.86 190.591 300.42L192.111 299.72C191.791 298.853 191.251 298.18 190.491 297.7C189.745 297.22 188.898 296.98 187.951 296.98C187.245 296.98 186.605 297.113 186.031 297.38C185.471 297.647 185.025 298.02 184.691 298.5C184.371 298.967 184.211 299.52 184.211 300.16C184.211 300.853 184.431 301.467 184.871 302C185.325 302.52 186.038 302.913 187.011 303.18L188.631 303.64C188.858 303.693 189.091 303.78 189.331 303.9C189.585 304.007 189.798 304.16 189.971 304.36C190.158 304.547 190.251 304.8 190.251 305.12C190.251 305.573 190.058 305.94 189.671 306.22C189.285 306.5 188.798 306.64 188.211 306.64C187.558 306.64 186.965 306.46 186.431 306.1C185.898 305.727 185.478 305.213 185.171 304.56L183.691 305.28C184.025 306.187 184.591 306.907 185.391 307.44C186.191 307.973 187.131 308.24 188.211 308.24ZM199.126 308.24C200.233 308.24 201.193 307.98 202.006 307.46C202.819 306.94 203.393 306.307 203.726 305.56L202.166 304.76C201.859 305.28 201.459 305.707 200.966 306.04C200.473 306.373 199.866 306.54 199.146 306.54C198.546 306.54 197.986 306.407 197.466 306.14C196.959 305.86 196.539 305.467 196.206 304.96C195.886 304.453 195.713 303.853 195.686 303.16H203.926C203.993 302.8 204.026 302.467 204.026 302.16C204.026 301.267 203.826 300.427 203.426 299.64C203.026 298.853 202.446 298.213 201.686 297.72C200.939 297.227 200.033 296.98 198.966 296.98C197.966 296.98 197.073 297.22 196.286 297.7C195.499 298.18 194.873 298.847 194.406 299.7C193.953 300.54 193.726 301.5 193.726 302.58C193.726 303.66 193.959 304.627 194.426 305.48C194.893 306.333 195.533 307.007 196.346 307.5C197.159 307.993 198.086 308.24 199.126 308.24ZM198.966 298.64C199.513 298.64 200.013 298.767 200.466 299.02C200.919 299.26 201.286 299.6 201.566 300.04C201.846 300.48 201.993 300.987 202.006 301.56H195.726C195.859 300.653 196.233 299.94 196.846 299.42C197.459 298.9 198.166 298.64 198.966 298.64ZM209.911 308.24C210.685 308.24 211.365 308.107 211.951 307.84C212.538 307.573 212.998 307.207 213.331 306.74C213.665 306.26 213.831 305.713 213.831 305.1C213.831 304.353 213.585 303.713 213.091 303.18C212.598 302.647 211.918 302.253 211.051 302L209.291 301.48C209.078 301.413 208.858 301.333 208.631 301.24C208.405 301.133 208.211 300.987 208.051 300.8C207.891 300.6 207.811 300.347 207.811 300.04C207.811 299.613 207.971 299.267 208.291 299C208.625 298.733 209.058 298.6 209.591 298.6C210.178 298.6 210.711 298.767 211.191 299.1C211.685 299.42 212.051 299.86 212.291 300.42L213.811 299.72C213.491 298.853 212.951 298.18 212.191 297.7C211.445 297.22 210.598 296.98 209.651 296.98C208.945 296.98 208.305 297.113 207.731 297.38C207.171 297.647 206.725 298.02 206.391 298.5C206.071 298.967 205.911 299.52 205.911 300.16C205.911 300.853 206.131 301.467 206.571 302C207.025 302.52 207.738 302.913 208.711 303.18L210.331 303.64C210.558 303.693 210.791 303.78 211.031 303.9C211.285 304.007 211.498 304.16 211.671 304.36C211.858 304.547 211.951 304.8 211.951 305.12C211.951 305.573 211.758 305.94 211.371 306.22C210.985 306.5 210.498 306.64 209.911 306.64C209.258 306.64 208.665 306.46 208.131 306.1C207.598 305.727 207.178 305.213 206.871 304.56L205.391 305.28C205.725 306.187 206.291 306.907 207.091 307.44C207.891 307.973 208.831 308.24 209.911 308.24ZM216.626 308H218.566V305.6H216.626V308Z" fill="white"></path>
<circle cx="31" cy="31" r="28" fill="#7C5CFC" stroke="#0D121F" stroke-width="6"></circle>
<path d="M25.5281 41H37.4081V38.6H29.2721L33.5921 33.992C34.7761 32.712 35.6481 31.616 36.2081 30.704C36.7841 29.776 37.0721 28.824 37.0721 27.848C37.0721 26.856 36.8321 25.984 36.3521 25.232C35.8881 24.48 35.2321 23.896 34.3841 23.48C33.5361 23.048 32.5441 22.832 31.4081 22.832C30.4321 22.832 29.5281 23.024 28.6961 23.408C27.8641 23.792 27.1601 24.336 26.5841 25.04C26.0081 25.728 25.6161 26.544 25.4081 27.488L27.9041 28.208C28.1441 27.28 28.5761 26.576 29.2001 26.096C29.8241 25.6 30.5681 25.352 31.4321 25.352C32.2801 25.352 32.9601 25.592 33.4721 26.072C34.0001 26.552 34.2641 27.216 34.2641 28.064C34.2641 28.592 34.1441 29.096 33.9041 29.576C33.6641 30.056 33.2641 30.616 32.7041 31.256C32.1441 31.88 31.3841 32.704 30.4241 33.728L25.5281 38.96V41Z" fill="white"></path>
</svg>
