<svg width="230" height="315" viewBox="0 0 230 315" fill="none" xmlns="http://www.w3.org/2000/svg">
<rect x="30" y="31" width="200" height="200" rx="16" fill="#F3F5F7"/>
<path d="M62 75C62 68.3726 67.3726 63 74 63H230V231H62V75Z" fill="white"/>
<path d="M106 97C100.49 97 96 101.49 96 107C96 112.51 100.49 117 106 117C111.51 117 116 112.51 116 107C116 101.49 111.51 97 106 97ZM110.78 104.7L105.11 110.37C104.97 110.51 104.78 110.59 104.58 110.59C104.38 110.59 104.19 110.51 104.05 110.37L101.22 107.54C100.93 107.25 100.93 106.77 101.22 106.48C101.51 106.19 101.99 106.19 102.28 106.48L104.58 108.78L109.72 103.64C110.01 103.35 110.49 103.35 110.78 103.64C111.07 103.93 111.07 104.4 110.78 104.7Z" fill="#9CD323"/>
<rect x="130" y="95" width="100" height="5" rx="2.5" fill="#C3D4E9"/>
<rect x="130" y="112" width="100" height="5" rx="2.5" fill="#C3D4E9"/>
<rect x="130" y="129" width="100" height="5" rx="2.5" fill="#C3D4E9"/>
<path d="M106 160C100.49 160 96 164.49 96 170C96 175.51 100.49 180 106 180C111.51 180 116 175.51 116 170C116 164.49 111.51 160 106 160ZM110.78 167.7L105.11 173.37C104.97 173.51 104.78 173.59 104.58 173.59C104.38 173.59 104.19 173.51 104.05 173.37L101.22 170.54C100.93 170.25 100.93 169.77 101.22 169.48C101.51 169.19 101.99 169.19 102.28 169.48L104.58 171.78L109.72 166.64C110.01 166.35 110.49 166.35 110.78 166.64C111.07 166.93 111.07 167.4 110.78 167.7Z" fill="#9CD323"/>
<rect x="130" y="158" width="100" height="5" rx="2.5" fill="#C3D4E9"/>
<rect x="130" y="175" width="100" height="5" rx="2.5" fill="#C3D4E9"/>
<rect x="130" y="192" width="100" height="5" rx="2.5" fill="#C3D4E9"/>
<path d="M84.1686 278H89.0486C90.5553 278 91.8686 277.687 92.9886 277.06C94.1086 276.433 94.9753 275.56 95.5886 274.44C96.2019 273.32 96.5086 272.02 96.5086 270.54C96.5086 269.047 96.2019 267.747 95.5886 266.64C94.9753 265.52 94.1086 264.653 92.9886 264.04C91.8686 263.413 90.5553 263.1 89.0486 263.1H84.1686V278ZM86.1286 276.2V264.9H89.0686C90.1619 264.9 91.1086 265.133 91.9086 265.6C92.7219 266.053 93.3486 266.7 93.7886 267.54C94.2419 268.38 94.4686 269.38 94.4686 270.54C94.4686 271.687 94.2486 272.687 93.8086 273.54C93.3686 274.393 92.7419 275.053 91.9286 275.52C91.1286 275.973 90.1753 276.2 89.0686 276.2H86.1286ZM103.493 278.24C104.506 278.24 105.433 278 106.273 277.52C107.113 277.04 107.779 276.373 108.273 275.52C108.779 274.667 109.033 273.693 109.033 272.6C109.033 271.52 108.786 270.56 108.293 269.72C107.813 268.867 107.153 268.2 106.313 267.72C105.473 267.227 104.533 266.98 103.493 266.98C102.439 266.98 101.493 267.227 100.653 267.72C99.8128 268.2 99.1461 268.867 98.6528 269.72C98.1728 270.56 97.9328 271.52 97.9328 272.6C97.9328 273.68 98.1795 274.647 98.6728 275.5C99.1661 276.353 99.8328 277.027 100.673 277.52C101.513 278 102.453 278.24 103.493 278.24ZM103.493 276.44C102.813 276.44 102.199 276.273 101.653 275.94C101.119 275.607 100.693 275.153 100.373 274.58C100.053 273.993 99.8928 273.333 99.8928 272.6C99.8928 271.867 100.053 271.213 100.373 270.64C100.693 270.067 101.119 269.613 101.653 269.28C102.199 268.947 102.813 268.78 103.493 268.78C104.159 268.78 104.759 268.947 105.293 269.28C105.839 269.613 106.266 270.067 106.573 270.64C106.893 271.213 107.053 271.867 107.053 272.6C107.053 273.333 106.893 273.993 106.573 274.58C106.266 275.153 105.839 275.607 105.293 275.94C104.759 276.273 104.159 276.44 103.493 276.44ZM111.059 278H112.919V271.62C112.919 270.74 113.165 270.047 113.659 269.54C114.152 269.033 114.779 268.78 115.539 268.78C116.299 268.78 116.919 269.033 117.399 269.54C117.879 270.033 118.119 270.727 118.119 271.62V278H119.999V271.02C119.999 270.247 119.819 269.56 119.459 268.96C119.112 268.347 118.632 267.867 118.019 267.52C117.419 267.16 116.732 266.98 115.959 266.98C115.292 266.98 114.692 267.12 114.159 267.4C113.625 267.667 113.199 268.047 112.879 268.54V267.22H111.059V278ZM127.22 278.24C128.327 278.24 129.287 277.98 130.1 277.46C130.914 276.94 131.487 276.307 131.82 275.56L130.26 274.76C129.954 275.28 129.554 275.707 129.06 276.04C128.567 276.373 127.96 276.54 127.24 276.54C126.64 276.54 126.08 276.407 125.56 276.14C125.054 275.86 124.634 275.467 124.3 274.96C123.98 274.453 123.807 273.853 123.78 273.16H132.02C132.087 272.8 132.12 272.467 132.12 272.16C132.12 271.267 131.92 270.427 131.52 269.64C131.12 268.853 130.54 268.213 129.78 267.72C129.034 267.227 128.127 266.98 127.06 266.98C126.06 266.98 125.167 267.22 124.38 267.7C123.594 268.18 122.967 268.847 122.5 269.7C122.047 270.54 121.82 271.5 121.82 272.58C121.82 273.66 122.054 274.627 122.52 275.48C122.987 276.333 123.627 277.007 124.44 277.5C125.254 277.993 126.18 278.24 127.22 278.24ZM127.06 268.64C127.607 268.64 128.107 268.767 128.56 269.02C129.014 269.26 129.38 269.6 129.66 270.04C129.94 270.48 130.087 270.987 130.1 271.56H123.82C123.954 270.653 124.327 269.94 124.94 269.42C125.554 268.9 126.26 268.64 127.06 268.64ZM134.465 280.78C136.025 280.42 136.805 279.26 136.805 277.3V275.6H134.865V278H135.765C135.725 279.027 135.292 279.653 134.465 279.88V280.78ZM142.779 278H144.639V262.86H142.779V278ZM152.085 278.24C153.192 278.24 154.152 277.98 154.965 277.46C155.778 276.94 156.352 276.307 156.685 275.56L155.125 274.76C154.818 275.28 154.418 275.707 153.925 276.04C153.432 276.373 152.825 276.54 152.105 276.54C151.505 276.54 150.945 276.407 150.425 276.14C149.918 275.86 149.498 275.467 149.165 274.96C148.845 274.453 148.672 273.853 148.645 273.16H156.885C156.952 272.8 156.985 272.467 156.985 272.16C156.985 271.267 156.785 270.427 156.385 269.64C155.985 268.853 155.405 268.213 154.645 267.72C153.898 267.227 152.992 266.98 151.925 266.98C150.925 266.98 150.032 267.22 149.245 267.7C148.458 268.18 147.832 268.847 147.365 269.7C146.912 270.54 146.685 271.5 146.685 272.58C146.685 273.66 146.918 274.627 147.385 275.48C147.852 276.333 148.492 277.007 149.305 277.5C150.118 277.993 151.045 278.24 152.085 278.24ZM151.925 268.64C152.472 268.64 152.972 268.767 153.425 269.02C153.878 269.26 154.245 269.6 154.525 270.04C154.805 270.48 154.952 270.987 154.965 271.56H148.685C148.818 270.653 149.192 269.94 149.805 269.42C150.418 268.9 151.125 268.64 151.925 268.64ZM163.39 278.12C163.537 278.12 163.717 278.107 163.93 278.08C164.144 278.067 164.337 278.04 164.51 278V276.36C164.39 276.373 164.264 276.387 164.13 276.4C163.997 276.413 163.877 276.42 163.77 276.42C163.117 276.42 162.65 276.26 162.37 275.94C162.104 275.607 161.97 275.167 161.97 274.62V269H164.39V267.22H161.97V264.74H160.11V265.62C160.11 266.113 159.97 266.507 159.69 266.8C159.41 267.08 159.03 267.22 158.55 267.22H158.15V269H160.11V274.68C160.11 275.773 160.39 276.62 160.95 277.22C161.524 277.82 162.337 278.12 163.39 278.12ZM166.86 268.08C167.633 267.893 168.213 267.52 168.6 266.96C169 266.387 169.2 265.667 169.2 264.8V263.1H167.26V265.5H168.16C168.12 265.927 167.993 266.287 167.78 266.58C167.58 266.873 167.273 267.073 166.86 267.18V268.08ZM175.977 278.24C176.75 278.24 177.43 278.107 178.017 277.84C178.603 277.573 179.063 277.207 179.397 276.74C179.73 276.26 179.897 275.713 179.897 275.1C179.897 274.353 179.65 273.713 179.157 273.18C178.663 272.647 177.983 272.253 177.117 272L175.357 271.48C175.143 271.413 174.923 271.333 174.697 271.24C174.47 271.133 174.277 270.987 174.117 270.8C173.957 270.6 173.877 270.347 173.877 270.04C173.877 269.613 174.037 269.267 174.357 269C174.69 268.733 175.123 268.6 175.657 268.6C176.243 268.6 176.777 268.767 177.257 269.1C177.75 269.42 178.117 269.86 178.357 270.42L179.877 269.72C179.557 268.853 179.017 268.18 178.257 267.7C177.51 267.22 176.663 266.98 175.717 266.98C175.01 266.98 174.37 267.113 173.797 267.38C173.237 267.647 172.79 268.02 172.457 268.5C172.137 268.967 171.977 269.52 171.977 270.16C171.977 270.853 172.197 271.467 172.637 272C173.09 272.52 173.803 272.913 174.777 273.18L176.397 273.64C176.623 273.693 176.857 273.78 177.097 273.9C177.35 274.007 177.563 274.16 177.737 274.36C177.923 274.547 178.017 274.8 178.017 275.12C178.017 275.573 177.823 275.94 177.437 276.22C177.05 276.5 176.563 276.64 175.977 276.64C175.323 276.64 174.73 276.46 174.197 276.1C173.663 275.727 173.243 275.213 172.937 274.56L171.457 275.28C171.79 276.187 172.357 276.907 173.157 277.44C173.957 277.973 174.897 278.24 175.977 278.24ZM52.5705 308.24C53.2771 308.24 53.9371 308.113 54.5505 307.86C55.1771 307.607 55.7171 307.26 56.1705 306.82C56.6238 306.38 56.9638 305.887 57.1905 305.34L55.5305 304.5C55.2771 305.087 54.8905 305.56 54.3705 305.92C53.8638 306.267 53.2638 306.44 52.5705 306.44C51.9171 306.44 51.3238 306.273 50.7905 305.94C50.2705 305.607 49.8571 305.153 49.5505 304.58C49.2438 303.993 49.0905 303.34 49.0905 302.62C49.0905 301.873 49.2438 301.213 49.5505 300.64C49.8571 300.067 50.2705 299.613 50.7905 299.28C51.3238 298.947 51.9171 298.78 52.5705 298.78C53.2505 298.78 53.8505 298.96 54.3705 299.32C54.8905 299.667 55.2771 300.12 55.5305 300.68L57.1905 299.88C56.9638 299.32 56.6171 298.82 56.1505 298.38C55.6971 297.94 55.1638 297.6 54.5505 297.36C53.9371 297.107 53.2771 296.98 52.5705 296.98C51.5171 296.98 50.5771 297.227 49.7505 297.72C48.9371 298.2 48.2971 298.867 47.8305 299.72C47.3638 300.56 47.1305 301.52 47.1305 302.6C47.1305 303.667 47.3638 304.627 47.8305 305.48C48.2971 306.333 48.9371 307.007 49.7505 307.5C50.5771 307.993 51.5171 308.24 52.5705 308.24ZM64.3413 308.24C65.3546 308.24 66.2813 308 67.1213 307.52C67.9613 307.04 68.6279 306.373 69.1213 305.52C69.6279 304.667 69.8813 303.693 69.8813 302.6C69.8813 301.52 69.6346 300.56 69.1413 299.72C68.6613 298.867 68.0013 298.2 67.1613 297.72C66.3213 297.227 65.3813 296.98 64.3413 296.98C63.2879 296.98 62.3413 297.227 61.5013 297.72C60.6613 298.2 59.9946 298.867 59.5013 299.72C59.0213 300.56 58.7813 301.52 58.7813 302.6C58.7813 303.68 59.0279 304.647 59.5213 305.5C60.0146 306.353 60.6813 307.027 61.5213 307.52C62.3613 308 63.3013 308.24 64.3413 308.24ZM64.3413 306.44C63.6613 306.44 63.0479 306.273 62.5013 305.94C61.9679 305.607 61.5413 305.153 61.2213 304.58C60.9013 303.993 60.7413 303.333 60.7413 302.6C60.7413 301.867 60.9013 301.213 61.2213 300.64C61.5413 300.067 61.9679 299.613 62.5013 299.28C63.0479 298.947 63.6613 298.78 64.3413 298.78C65.0079 298.78 65.6079 298.947 66.1413 299.28C66.6879 299.613 67.1146 300.067 67.4213 300.64C67.7413 301.213 67.9013 301.867 67.9013 302.6C67.9013 303.333 67.7413 303.993 67.4213 304.58C67.1146 305.153 66.6879 305.607 66.1413 305.94C65.6079 306.273 65.0079 306.44 64.3413 306.44ZM71.9072 308H73.7672V301.62C73.7672 300.74 74.0139 300.047 74.5072 299.54C75.0005 299.033 75.6272 298.78 76.3872 298.78C77.1472 298.78 77.7672 299.033 78.2472 299.54C78.7272 300.033 78.9672 300.727 78.9672 301.62V308H80.8472V301.02C80.8472 300.247 80.6672 299.56 80.3072 298.96C79.9605 298.347 79.4805 297.867 78.8672 297.52C78.2672 297.16 77.5805 296.98 76.8072 296.98C76.1405 296.98 75.5405 297.12 75.0072 297.4C74.4739 297.667 74.0472 298.047 73.7272 298.54V297.22H71.9072V308ZM87.4888 308.12C87.6354 308.12 87.8154 308.107 88.0288 308.08C88.2421 308.067 88.4354 308.04 88.6088 308V306.36C88.4888 306.373 88.3621 306.387 88.2288 306.4C88.0954 306.413 87.9754 306.42 87.8688 306.42C87.2154 306.42 86.7488 306.26 86.4688 305.94C86.2021 305.607 86.0688 305.167 86.0688 304.62V299H88.4888V297.22H86.0688V294.74H84.2088V295.62C84.2088 296.113 84.0688 296.507 83.7888 296.8C83.5088 297.08 83.1288 297.22 82.6488 297.22H82.2488V299H84.2088V304.68C84.2088 305.773 84.4888 306.62 85.0488 307.22C85.6221 307.82 86.4354 308.12 87.4888 308.12ZM90.6384 295.5H92.4984V293.1H90.6384V295.5ZM90.6384 308H92.4984V297.22H90.6384V308ZM94.9845 308H96.8445V301.62C96.8445 300.74 97.0912 300.047 97.5845 299.54C98.0779 299.033 98.7045 298.78 99.4645 298.78C100.225 298.78 100.845 299.033 101.325 299.54C101.805 300.033 102.045 300.727 102.045 301.62V308H103.925V301.02C103.925 300.247 103.745 299.56 103.385 298.96C103.038 298.347 102.558 297.867 101.945 297.52C101.345 297.16 100.658 296.98 99.8845 296.98C99.2179 296.98 98.6179 297.12 98.0845 297.4C97.5512 297.667 97.1245 298.047 96.8045 298.54V297.22H94.9845V308ZM110.006 308.24C110.673 308.24 111.273 308.107 111.806 307.84C112.339 307.56 112.766 307.173 113.086 306.68V308H114.906V297.22H113.026V303.6C113.026 304.48 112.779 305.173 112.286 305.68C111.806 306.187 111.186 306.44 110.426 306.44C109.653 306.44 109.026 306.2 108.546 305.72C108.066 305.227 107.826 304.573 107.826 303.76V297.22H105.966V303.96C105.966 304.8 106.139 305.547 106.486 306.2C106.833 306.84 107.306 307.34 107.906 307.7C108.519 308.06 109.219 308.24 110.006 308.24ZM122.348 308.24C123.454 308.24 124.414 307.98 125.228 307.46C126.041 306.94 126.614 306.307 126.948 305.56L125.388 304.76C125.081 305.28 124.681 305.707 124.188 306.04C123.694 306.373 123.088 306.54 122.368 306.54C121.768 306.54 121.208 306.407 120.688 306.14C120.181 305.86 119.761 305.467 119.428 304.96C119.108 304.453 118.934 303.853 118.908 303.16H127.148C127.214 302.8 127.248 302.467 127.248 302.16C127.248 301.267 127.048 300.427 126.648 299.64C126.248 298.853 125.668 298.213 124.908 297.72C124.161 297.227 123.254 296.98 122.188 296.98C121.188 296.98 120.294 297.22 119.508 297.7C118.721 298.18 118.094 298.847 117.628 299.7C117.174 300.54 116.948 301.5 116.948 302.58C116.948 303.66 117.181 304.627 117.648 305.48C118.114 306.333 118.754 307.007 119.568 307.5C120.381 307.993 121.308 308.24 122.348 308.24ZM122.188 298.64C122.734 298.64 123.234 298.767 123.688 299.02C124.141 299.26 124.508 299.6 124.788 300.04C125.068 300.48 125.214 300.987 125.228 301.56H118.948C119.081 300.653 119.454 299.94 120.068 299.42C120.681 298.9 121.388 298.64 122.188 298.64ZM136.71 308.12C136.857 308.12 137.037 308.107 137.25 308.08C137.463 308.067 137.657 308.04 137.83 308V306.36C137.71 306.373 137.583 306.387 137.45 306.4C137.317 306.413 137.197 306.42 137.09 306.42C136.437 306.42 135.97 306.26 135.69 305.94C135.423 305.607 135.29 305.167 135.29 304.62V299H137.71V297.22H135.29V294.74H133.43V295.62C133.43 296.113 133.29 296.507 133.01 296.8C132.73 297.08 132.35 297.22 131.87 297.22H131.47V299H133.43V304.68C133.43 305.773 133.71 306.62 134.27 307.22C134.843 307.82 135.657 308.12 136.71 308.12ZM139.86 308H141.72V301.62C141.72 300.74 141.966 300.047 142.46 299.54C142.966 299.033 143.593 298.78 144.34 298.78C145.086 298.78 145.7 299.033 146.18 299.54C146.673 300.033 146.92 300.727 146.92 301.62V308H148.8V301.02C148.8 300.247 148.62 299.56 148.26 298.96C147.913 298.347 147.433 297.867 146.82 297.52C146.22 297.16 145.533 296.98 144.76 296.98C144.106 296.98 143.513 297.113 142.98 297.38C142.46 297.633 142.04 298 141.72 298.48V292.86H139.86V308ZM156.021 308.24C157.128 308.24 158.088 307.98 158.901 307.46C159.714 306.94 160.288 306.307 160.621 305.56L159.061 304.76C158.754 305.28 158.354 305.707 157.861 306.04C157.368 306.373 156.761 306.54 156.041 306.54C155.441 306.54 154.881 306.407 154.361 306.14C153.854 305.86 153.434 305.467 153.101 304.96C152.781 304.453 152.608 303.853 152.581 303.16H160.821C160.888 302.8 160.921 302.467 160.921 302.16C160.921 301.267 160.721 300.427 160.321 299.64C159.921 298.853 159.341 298.213 158.581 297.72C157.834 297.227 156.928 296.98 155.861 296.98C154.861 296.98 153.968 297.22 153.181 297.7C152.394 298.18 151.768 298.847 151.301 299.7C150.848 300.54 150.621 301.5 150.621 302.58C150.621 303.66 150.854 304.627 151.321 305.48C151.788 306.333 152.428 307.007 153.241 307.5C154.054 307.993 154.981 308.24 156.021 308.24ZM155.861 298.64C156.408 298.64 156.908 298.767 157.361 299.02C157.814 299.26 158.181 299.6 158.461 300.04C158.741 300.48 158.888 300.987 158.901 301.56H152.621C152.754 300.653 153.128 299.94 153.741 299.42C154.354 298.9 155.061 298.64 155.861 298.64ZM168.483 308H170.263L172.823 299.88L175.383 308H177.163L180.863 297.22H178.823L176.223 305.12L173.703 297.22H171.943L169.423 305.12L166.843 297.22H164.783L168.483 308ZM187.051 308.24C188.065 308.24 188.991 308 189.831 307.52C190.671 307.04 191.338 306.373 191.831 305.52C192.338 304.667 192.591 303.693 192.591 302.6C192.591 301.52 192.345 300.56 191.851 299.72C191.371 298.867 190.711 298.2 189.871 297.72C189.031 297.227 188.091 296.98 187.051 296.98C185.998 296.98 185.051 297.227 184.211 297.72C183.371 298.2 182.705 298.867 182.211 299.72C181.731 300.56 181.491 301.52 181.491 302.6C181.491 303.68 181.738 304.647 182.231 305.5C182.725 306.353 183.391 307.027 184.231 307.52C185.071 308 186.011 308.24 187.051 308.24ZM187.051 306.44C186.371 306.44 185.758 306.273 185.211 305.94C184.678 305.607 184.251 305.153 183.931 304.58C183.611 303.993 183.451 303.333 183.451 302.6C183.451 301.867 183.611 301.213 183.931 300.64C184.251 300.067 184.678 299.613 185.211 299.28C185.758 298.947 186.371 298.78 187.051 298.78C187.718 298.78 188.318 298.947 188.851 299.28C189.398 299.613 189.825 300.067 190.131 300.64C190.451 301.213 190.611 301.867 190.611 302.6C190.611 303.333 190.451 303.993 190.131 304.58C189.825 305.153 189.398 305.607 188.851 305.94C188.318 306.273 187.718 306.44 187.051 306.44ZM194.617 308H196.477V301.58C196.477 300.713 196.711 300.047 197.177 299.58C197.644 299.1 198.257 298.86 199.017 298.86H199.957V297.1H199.297C198.631 297.1 198.057 297.22 197.577 297.46C197.097 297.687 196.717 298.033 196.437 298.5V297.22H194.617V308ZM201.21 308H203.07V304.76L204.91 302.82L208.49 308H210.69L206.27 301.56L210.41 297.22H208.03L203.07 302.28V292.86H201.21V308ZM212.722 308H214.662V305.6H212.722V308Z" fill="white"/>
<circle cx="31" cy="31" r="28" fill="#7C5CFC" stroke="#0D121F" stroke-width="6"/>
<path d="M31.1961 41.288C32.4281 41.288 33.5161 41.032 34.4601 40.52C35.4201 39.992 36.1721 39.28 36.7161 38.384C37.2601 37.472 37.5321 36.456 37.5321 35.336C37.5321 33.896 37.1081 32.704 36.2601 31.76C35.4121 30.816 34.2921 30.256 32.9001 30.08L36.7881 25.4V23.12H26.0121V25.52H33.6201L28.9161 31.064L29.5401 32.384C29.7641 32.304 30.0201 32.24 30.3081 32.192C30.6121 32.144 30.9081 32.12 31.1961 32.12C32.2361 32.12 33.0761 32.408 33.7161 32.984C34.3721 33.56 34.7001 34.368 34.7001 35.408C34.7001 36.464 34.3721 37.288 33.7161 37.88C33.0761 38.472 32.2361 38.768 31.1961 38.768C30.3321 38.768 29.5721 38.536 28.9161 38.072C28.2601 37.592 27.7721 36.936 27.4521 36.104L25.0521 37.016C25.3081 37.896 25.7321 38.656 26.3241 39.296C26.9321 39.92 27.6521 40.408 28.4841 40.76C29.3321 41.112 30.2361 41.288 31.1961 41.288Z" fill="white"/>
</svg>
